<svg width="61" height="58" viewBox="0 0 61 58" fill="none" xmlns="http://www.w3.org/2000/svg">
<g clip-path="url(#clip0_2321_14639)">
<path d="M30.0273 0.74939C30.7235 0.74939 31.3912 1.02571 31.8835 1.51757C32.3758 2.00943 32.6523 2.67654 32.6523 3.37213V3.74681H27.4023V3.37213C27.4023 2.67654 27.6789 2.00943 28.1712 1.51757C28.6635 1.02571 29.3312 0.74939 30.0273 0.74939Z" fill="#281400" stroke="#141414" stroke-width="1.25" stroke-linecap="round" stroke-linejoin="round"/>
<path d="M5.65234 37.3852C4.35941 37.3852 3.11944 36.872 2.2052 35.9585C1.29096 35.0451 0.777344 33.8062 0.777344 32.5144C0.777344 31.2225 1.29096 29.9836 2.2052 29.0702C3.11944 28.1567 4.35941 27.6436 5.65234 27.6436V37.3852Z" fill="#FFE9C5" stroke="#141414" stroke-width="1.25" stroke-miterlimit="10"/>
<path d="M54.4023 27.6436C55.6953 27.6436 56.9352 28.1567 57.8495 29.0702C58.7637 29.9836 59.2773 31.2225 59.2773 32.5144C59.2773 33.8062 58.7637 35.0451 57.8495 35.9585C56.9352 36.872 55.6953 37.3852 54.4023 37.3852V27.6436Z" fill="#FFE9C5" stroke="#141414" stroke-width="1.25" stroke-miterlimit="10"/>
<path d="M30.0273 57.2506C43.9035 57.2506 55.1523 46.5147 55.1523 33.2713C55.1523 20.0279 43.9035 9.29199 30.0273 9.29199C16.1512 9.29199 4.90234 20.0279 4.90234 33.2713C4.90234 46.5147 16.1512 57.2506 30.0273 57.2506Z" fill="#FFE9C5" stroke="#141414" stroke-width="1.25" stroke-miterlimit="10"/>
<path d="M18.0273 40.0155C20.3055 40.0155 22.1523 38.1702 22.1523 35.894C22.1523 33.6178 20.3055 31.7726 18.0273 31.7726C15.7492 31.7726 13.9023 33.6178 13.9023 35.894C13.9023 38.1702 15.7492 40.0155 18.0273 40.0155Z" fill="#FCB295"/>
<path d="M42.0273 40.0155C44.3055 40.0155 46.1523 38.1702 46.1523 35.894C46.1523 33.6178 44.3055 31.7726 42.0273 31.7726C39.7492 31.7726 37.9023 33.6178 37.9023 35.894C37.9023 38.1702 39.7492 40.0155 42.0273 40.0155Z" fill="#FCB295"/>
<path d="M23.6523 30.8359C24.895 30.8359 25.9023 29.6617 25.9023 28.2132C25.9023 26.7647 24.895 25.5905 23.6523 25.5905C22.4097 25.5905 21.4023 26.7647 21.4023 28.2132C21.4023 29.6617 22.4097 30.8359 23.6523 30.8359Z" fill="black"/>
<path d="M36.4023 31.0233C37.645 31.0233 38.6523 29.8491 38.6523 28.4006C38.6523 26.9521 37.645 25.7778 36.4023 25.7778C35.1597 25.7778 34.1523 26.9521 34.1523 28.4006C34.1523 29.8491 35.1597 31.0233 36.4023 31.0233Z" fill="black"/>
<path d="M20.6523 36.2611C20.6523 36.2611 30.0198 45.0136 39.4023 36.2611" stroke="black" stroke-width="1.25" stroke-linecap="round" stroke-linejoin="round"/>
<path d="M30.0273 12.6565C39.2223 12.6565 47.2773 15.5115 52.9023 21.7312C54.1923 20.2324 55.1523 19.4082 55.1523 17.2875C55.1523 17.0327 55.1523 16.7854 55.1148 16.5381C54.9637 14.8098 54.2798 13.1708 53.1573 11.8472C49.3323 6.87147 40.4073 3.38696 30.0273 3.38696C19.6473 3.38696 10.7298 6.87147 6.89735 11.8472C5.77486 13.1708 5.09094 14.8098 4.93985 16.5381C4.93985 16.7854 4.90234 17.0327 4.90234 17.2875C4.90234 19.4082 5.86234 20.2849 7.15234 21.7312C12.7623 15.534 20.8323 12.6565 30.0273 12.6565Z" fill="#281400" stroke="#141414" stroke-width="1.25" stroke-linecap="round" stroke-linejoin="round"/>
</g>
<defs>
<clipPath id="clip0_2321_14639">
<rect width="60" height="58" fill="white" transform="translate(0.0273438)"/>
</clipPath>
</defs>
</svg>
