<svg width="61" height="60" viewBox="0 0 61 60" fill="none" xmlns="http://www.w3.org/2000/svg">
<g clip-path="url(#clip0_2321_14738)">
<path d="M5.72382 39.388C4.41452 39.388 3.15885 38.8747 2.23304 37.961C1.30723 37.0473 0.787109 35.8081 0.787109 34.516C0.787109 33.2239 1.30723 31.9847 2.23304 31.071C3.15885 30.1573 4.41452 29.644 5.72382 29.644V39.388Z" fill="#FFE9C5" stroke="#141414" stroke-width="1.25" stroke-miterlimit="10"/>
<path d="M54.332 29.644C55.6413 29.644 56.897 30.1573 57.8228 31.071C58.7486 31.9847 59.2687 33.2239 59.2687 34.516C59.2687 35.8081 58.7486 37.0473 57.8228 37.961C56.897 38.8747 55.6413 39.388 54.332 39.388V29.644Z" fill="#FFE9C5" stroke="#141414" stroke-width="1.25" stroke-miterlimit="10"/>
<path d="M25.2284 8.67941C25.9793 9.44559 26.4405 10.4432 26.5347 11.5051C26.5496 11.6483 26.6176 11.781 26.7255 11.8778C26.8334 11.9746 26.9737 12.0287 27.1195 12.0298H33.9549C34.1141 12.0298 34.2667 11.9674 34.3792 11.8564C34.4917 11.7453 34.5549 11.5947 34.5549 11.4377V0.599458C34.5559 0.471686 34.5149 0.347028 34.4382 0.244112C34.3615 0.141197 34.2531 0.065537 34.1292 0.0284344C34.0053 -0.00866815 33.8725 -0.00520568 33.7508 0.0382702C33.6291 0.0817461 33.5248 0.16291 33.4537 0.269662C31.8587 2.62319 28.7372 6.67067 25.4714 7.70503C25.3735 7.73468 25.285 7.78888 25.2146 7.86235C25.1443 7.93582 25.0944 8.02605 25.0699 8.12421C25.0454 8.22238 25.0471 8.32513 25.0749 8.42244C25.1027 8.51975 25.1556 8.60828 25.2284 8.67941Z" fill="black"/>
<path d="M29.7848 59.2505C43.8366 59.2505 55.2279 48.5121 55.2279 35.2655C55.2279 22.019 43.8366 11.2805 29.7848 11.2805C15.733 11.2805 4.3418 22.019 4.3418 35.2655C4.3418 48.5121 15.733 59.2505 29.7848 59.2505Z" fill="#FFE9C5" stroke="#141414" stroke-width="1.25" stroke-miterlimit="10"/>
<path d="M17.6323 42.7607C19.9393 42.7607 21.8095 40.915 21.8095 38.6383C21.8095 36.3615 19.9393 34.5159 17.6323 34.5159C15.3253 34.5159 13.4551 36.3615 13.4551 38.6383C13.4551 40.915 15.3253 42.7607 17.6323 42.7607Z" fill="#FCB295"/>
<path d="M41.935 42.7607C44.242 42.7607 46.1122 40.915 46.1122 38.6383C46.1122 36.3615 44.242 34.5159 41.935 34.5159C39.628 34.5159 37.7578 36.3615 37.7578 38.6383C37.7578 40.915 39.628 42.7607 41.935 42.7607Z" fill="#FCB295"/>
<path d="M29.7934 38.4659C27.9554 38.4659 26.4668 39.5228 26.4668 40.827V44.5746C26.4666 44.6441 26.4832 44.7126 26.5153 44.7744C26.5474 44.8362 26.594 44.8895 26.6513 44.9299C26.7085 44.9703 26.7748 44.9965 26.8444 45.0064C26.9141 45.0163 26.9851 45.0096 27.0516 44.9869C28.8274 44.378 30.7594 44.378 32.5351 44.9869C32.6006 45.0097 32.6707 45.0167 32.7394 45.0072C32.8082 44.9977 32.8736 44.972 32.9302 44.9323C32.9868 44.8927 33.0329 44.8401 33.0646 44.7792C33.0963 44.7182 33.1127 44.6506 33.1124 44.5821V40.8345C33.1124 39.5228 31.5934 38.4659 29.7934 38.4659Z" fill="black"/>
<path d="M27.582 31.4504C27.582 31.4504 30.2554 30.0937 32.139 31.5179" stroke="#141414" stroke-width="0.9375" stroke-linecap="round" stroke-linejoin="round"/>
<path d="M21.5654 33.5714C22.7902 33.5714 23.7831 32.4271 23.7831 31.0155C23.7831 29.6039 22.7902 28.4596 21.5654 28.4596C20.3406 28.4596 19.3477 29.6039 19.3477 31.0155C19.3477 32.4271 20.3406 33.5714 21.5654 33.5714Z" fill="black"/>
<path d="M23.7842 29.0144L16.25 26.2711" stroke="black" stroke-width="1.25" stroke-linecap="round" stroke-linejoin="round"/>
<path d="M13.0527 28.4822H28.2882C28.2882 29.4665 28.0917 30.4411 27.71 31.3505C27.3284 32.2599 26.7689 33.0862 26.0637 33.7822C25.3584 34.4782 24.5212 35.0303 23.5997 35.4069C22.6782 35.7836 21.6906 35.9775 20.6932 35.9775C18.6789 35.9775 16.7471 35.1878 15.3228 33.7822C13.8985 32.3765 13.0983 30.4701 13.0983 28.4822H13.0527Z" stroke="#141414" stroke-width="1.25" stroke-miterlimit="10"/>
<path d="M38.0009 33.5714C39.2257 33.5714 40.2186 32.4271 40.2186 31.0155C40.2186 29.6039 39.2257 28.4596 38.0009 28.4596C36.7761 28.4596 35.7832 29.6039 35.7832 31.0155C35.7832 32.4271 36.7761 33.5714 38.0009 33.5714Z" fill="black"/>
<path d="M35.7832 29.0144L43.3174 26.2711" stroke="black" stroke-width="1.25" stroke-linecap="round" stroke-linejoin="round"/>
<path d="M38.8981 35.985C36.8838 35.985 34.952 35.1954 33.5277 33.7897C32.1034 32.3841 31.3032 30.4776 31.3032 28.4897H46.5234C46.5234 29.4766 46.326 30.4537 45.9424 31.365C45.5588 32.2763 44.9967 33.1039 44.2882 33.8003C43.5797 34.4967 42.7389 35.0482 41.8139 35.4231C40.8889 35.798 39.898 35.989 38.8981 35.985Z" stroke="#141414" stroke-width="1.25" stroke-miterlimit="10"/>
</g>
<defs>
<clipPath id="clip0_2321_14738">
<rect width="60" height="60" fill="white" transform="translate(0.0273438)"/>
</clipPath>
</defs>
</svg>
