<svg width="61" height="56" viewBox="0 0 61 56" fill="none" xmlns="http://www.w3.org/2000/svg">
<g clip-path="url(#clip0_2321_14568)">
<path d="M5.65234 35.6996C4.35941 35.6996 3.11944 35.1941 2.2052 34.2943C1.29096 33.3944 0.777344 32.1739 0.777344 30.9013C0.777344 29.6287 1.29096 28.4083 2.2052 27.5084C3.11944 26.6086 4.35941 26.103 5.65234 26.103V35.6996Z" fill="#FFE9C5" stroke="#141414" stroke-width="1.25" stroke-miterlimit="10"/>
<path d="M54.4023 26.103C55.6953 26.103 56.9352 26.6086 57.8495 27.5084C58.7637 28.4083 59.2773 29.6287 59.2773 30.9013C59.2773 32.1739 58.7637 33.3944 57.8495 34.2943C56.9352 35.1941 55.6953 35.6996 54.4023 35.6996V26.103Z" fill="#FFE9C5" stroke="#141414" stroke-width="1.25" stroke-miterlimit="10"/>
<path d="M30.0273 55.262C43.9035 55.262 55.1523 44.6859 55.1523 31.6396C55.1523 18.5932 43.9035 8.01709 30.0273 8.01709C16.1512 8.01709 4.90234 18.5932 4.90234 31.6396C4.90234 44.6859 16.1512 55.262 30.0273 55.262Z" fill="#FFE9C5" stroke="#141414" stroke-width="1.25" stroke-miterlimit="10"/>
<path d="M18.0273 41.9742C20.3055 41.9742 22.1523 40.1565 22.1523 37.9141C22.1523 35.6718 20.3055 33.854 18.0273 33.854C15.7492 33.854 13.9023 35.6718 13.9023 37.9141C13.9023 40.1565 15.7492 41.9742 18.0273 41.9742Z" fill="#FCB295"/>
<path d="M42.0273 41.9742C44.3055 41.9742 46.1523 40.1565 46.1523 37.9141C46.1523 35.6718 44.3055 33.854 42.0273 33.854C39.7492 33.854 37.9023 35.6718 37.9023 37.9141C37.9023 40.1565 39.7492 41.9742 42.0273 41.9742Z" fill="#FCB295"/>
<path d="M23.6523 32.9313C24.895 32.9313 25.9023 31.7746 25.9023 30.3476C25.9023 28.9207 24.895 27.7639 23.6523 27.7639C22.4097 27.7639 21.4023 28.9207 21.4023 30.3476C21.4023 31.7746 22.4097 32.9313 23.6523 32.9313Z" fill="black"/>
<path d="M36.4023 33.1159C37.645 33.1159 38.6523 31.9591 38.6523 30.5322C38.6523 29.1053 37.645 27.9485 36.4023 27.9485C35.1597 27.9485 34.1523 29.1053 34.1523 30.5322C34.1523 31.9591 35.1597 33.1159 36.4023 33.1159Z" fill="black"/>
<path d="M20.6973 38.2836C20.6973 38.2836 30.0648 46.8984 39.4473 38.2836" stroke="black" stroke-width="1.25" stroke-linecap="round" stroke-linejoin="round"/>
<path d="M6.22266 27.1659C9.12215 27.1659 11.4727 24.8524 11.4727 21.9985C11.4727 19.1446 9.12215 16.8311 6.22266 16.8311C3.32316 16.8311 0.972656 19.1446 0.972656 21.9985C0.972656 24.8524 3.32316 27.1659 6.22266 27.1659Z" fill="#141414"/>
<path d="M10.8047 20.7435C13.7042 20.7435 16.0547 18.43 16.0547 15.5761C16.0547 12.7222 13.7042 10.4087 10.8047 10.4087C7.90519 10.4087 5.55469 12.7222 5.55469 15.5761C5.55469 18.43 7.90519 20.7435 10.8047 20.7435Z" fill="#141414"/>
<path d="M17.1133 16.3661C20.0128 16.3661 22.3633 14.0525 22.3633 11.1987C22.3633 8.34478 20.0128 6.03125 17.1133 6.03125C14.2138 6.03125 11.8633 8.34478 11.8633 11.1987C11.8633 14.0525 14.2138 16.3661 17.1133 16.3661Z" fill="#141414"/>
<path d="M24.252 12.6383C27.1514 12.6383 29.502 10.3248 29.502 7.47088C29.502 4.617 27.1514 2.30347 24.252 2.30347C21.3525 2.30347 19.002 4.617 19.002 7.47088C19.002 10.3248 21.3525 12.6383 24.252 12.6383Z" fill="#141414"/>
<path d="M29.502 12.1732C32.4014 12.1732 34.752 9.85968 34.752 7.00579C34.752 4.15191 32.4014 1.83838 29.502 1.83838C26.6025 1.83838 24.252 4.15191 24.252 7.00579C24.252 9.85968 26.6025 12.1732 29.502 12.1732Z" fill="#141414"/>
<path d="M12.252 26.9371C15.1514 26.9371 17.502 24.6236 17.502 21.7697C17.502 18.9158 15.1514 16.6023 12.252 16.6023C9.35246 16.6023 7.00195 18.9158 7.00195 21.7697C7.00195 24.6236 9.35246 26.9371 12.252 26.9371Z" fill="#141414"/>
<path d="M18.6195 25.0843C20.0651 25.0843 21.237 23.9308 21.237 22.508C21.237 21.0851 20.0651 19.9316 18.6195 19.9316C17.1738 19.9316 16.002 21.0851 16.002 22.508C16.002 23.9308 17.1738 25.0843 18.6195 25.0843Z" fill="#141414"/>
<path d="M5.11945 19.1785C6.56506 19.1785 7.73695 18.0251 7.73695 16.6022C7.73695 15.1793 6.56506 14.0259 5.11945 14.0259C3.67385 14.0259 2.50195 15.1793 2.50195 16.6022C2.50195 18.0251 3.67385 19.1785 5.11945 19.1785Z" fill="#141414"/>
<path d="M11.8695 13.273C13.3151 13.273 14.487 12.1196 14.487 10.6967C14.487 9.27382 13.3151 8.12036 11.8695 8.12036C10.4238 8.12036 9.25195 9.27382 9.25195 10.6967C9.25195 12.1196 10.4238 13.273 11.8695 13.273Z" fill="#141414"/>
<path d="M8.11945 15.4876C9.56506 15.4876 10.737 14.3342 10.737 12.9113C10.737 11.4884 9.56506 10.335 8.11945 10.335C6.67385 10.335 5.50195 11.4884 5.50195 12.9113C5.50195 14.3342 6.67385 15.4876 8.11945 15.4876Z" fill="#141414"/>
<path d="M14.8695 10.3201C16.3151 10.3201 17.487 9.16667 17.487 7.74381C17.487 6.32094 16.3151 5.16748 14.8695 5.16748C13.4238 5.16748 12.252 6.32094 12.252 7.74381C12.252 9.16667 13.4238 10.3201 14.8695 10.3201Z" fill="#141414"/>
<path d="M18.6195 8.10553C20.0651 8.10553 21.237 6.95207 21.237 5.52921C21.237 4.10634 20.0651 2.95288 18.6195 2.95288C17.1738 2.95288 16.002 4.10634 16.002 5.52921C16.002 6.95207 17.1738 8.10553 18.6195 8.10553Z" fill="#141414"/>
<path d="M23.1195 5.89093C24.5651 5.89093 25.737 4.73747 25.737 3.31461C25.737 1.89174 24.5651 0.738281 23.1195 0.738281C21.6738 0.738281 20.502 1.89174 20.502 3.31461C20.502 4.73747 21.6738 5.89093 23.1195 5.89093Z" fill="#141414"/>
<path d="M27.6195 5.15265C29.0651 5.15265 30.237 3.99919 30.237 2.57632C30.237 1.15346 29.0651 0 27.6195 0C26.1738 0 25.002 1.15346 25.002 2.57632C25.002 3.99919 26.1738 5.15265 27.6195 5.15265Z" fill="#141414"/>
<path d="M32.1195 5.89093C33.5651 5.89093 34.737 4.73747 34.737 3.31461C34.737 1.89174 33.5651 0.738281 32.1195 0.738281C30.6738 0.738281 29.502 1.89174 29.502 3.31461C29.502 4.73747 30.6738 5.89093 32.1195 5.89093Z" fill="#141414"/>
<path d="M36.6195 6.62921C38.0651 6.62921 39.237 5.47575 39.237 4.05289C39.237 2.63002 38.0651 1.47656 36.6195 1.47656C35.1738 1.47656 34.002 2.63002 34.002 4.05289C34.002 5.47575 35.1738 6.62921 36.6195 6.62921Z" fill="#141414"/>
<path d="M41.1195 8.84381C42.5651 8.84381 43.737 7.69035 43.737 6.26749C43.737 4.84462 42.5651 3.69116 41.1195 3.69116C39.6738 3.69116 38.502 4.84462 38.502 6.26749C38.502 7.69035 39.6738 8.84381 41.1195 8.84381Z" fill="#141414"/>
<path d="M45.6195 11.0584C47.0651 11.0584 48.237 9.90495 48.237 8.48209C48.237 7.05922 47.0651 5.90576 45.6195 5.90576C44.1738 5.90576 43.002 7.05922 43.002 8.48209C43.002 9.90495 44.1738 11.0584 45.6195 11.0584Z" fill="#141414"/>
<path d="M49.3695 14.011C50.8151 14.011 51.987 12.8576 51.987 11.4347C51.987 10.0119 50.8151 8.8584 49.3695 8.8584C47.9238 8.8584 46.752 10.0119 46.752 11.4347C46.752 12.8576 47.9238 14.011 49.3695 14.011Z" fill="#141414"/>
<path d="M52.3695 16.9639C53.8151 16.9639 54.9869 15.8105 54.9869 14.3876C54.9869 12.9647 53.8151 11.8113 52.3695 11.8113C50.9238 11.8113 49.752 12.9647 49.752 14.3876C49.752 15.8105 50.9238 16.9639 52.3695 16.9639Z" fill="#141414"/>
<path d="M54.6195 21.3931C56.0651 21.3931 57.2369 20.2397 57.2369 18.8168C57.2369 17.3939 56.0651 16.2405 54.6195 16.2405C53.1738 16.2405 52.002 17.3939 52.002 18.8168C52.002 20.2397 53.1738 21.3931 54.6195 21.3931Z" fill="#141414"/>
<path d="M23.1195 25.0843C24.5651 25.0843 25.737 23.9308 25.737 22.508C25.737 21.0851 24.5651 19.9316 23.1195 19.9316C21.6738 19.9316 20.502 21.0851 20.502 22.508C20.502 23.9308 21.6738 25.0843 23.1195 25.0843Z" fill="#141414"/>
<path d="M27.6195 25.0843C29.0651 25.0843 30.237 23.9308 30.237 22.508C30.237 21.0851 29.0651 19.9316 27.6195 19.9316C26.1738 19.9316 25.002 21.0851 25.002 22.508C25.002 23.9308 26.1738 25.0843 27.6195 25.0843Z" fill="#141414"/>
<path d="M32.1195 25.0843C33.5651 25.0843 34.737 23.9308 34.737 22.508C34.737 21.0851 33.5651 19.9316 32.1195 19.9316C30.6738 19.9316 29.502 21.0851 29.502 22.508C29.502 23.9308 30.6738 25.0843 32.1195 25.0843Z" fill="#141414"/>
<path d="M36.6195 25.0843C38.0651 25.0843 39.237 23.9308 39.237 22.508C39.237 21.0851 38.0651 19.9316 36.6195 19.9316C35.1738 19.9316 34.002 21.0851 34.002 22.508C34.002 23.9308 35.1738 25.0843 36.6195 25.0843Z" fill="#141414"/>
<path d="M22.3695 22.8697C23.8151 22.8697 24.987 21.7162 24.987 20.2934C24.987 18.8705 23.8151 17.717 22.3695 17.717C20.9238 17.717 19.752 18.8705 19.752 20.2934C19.752 21.7162 20.9238 22.8697 22.3695 22.8697Z" fill="#141414"/>
<path d="M26.8695 22.1314C28.3151 22.1314 29.487 20.9779 29.487 19.5551C29.487 18.1322 28.3151 16.9788 26.8695 16.9788C25.4238 16.9788 24.252 18.1322 24.252 19.5551C24.252 20.9779 25.4238 22.1314 26.8695 22.1314Z" fill="#141414"/>
<path d="M31.3695 22.1314C32.8151 22.1314 33.987 20.9779 33.987 19.5551C33.987 18.1322 32.8151 16.9788 31.3695 16.9788C29.9238 16.9788 28.752 18.1322 28.752 19.5551C28.752 20.9779 29.9238 22.1314 31.3695 22.1314Z" fill="#141414"/>
<path d="M24.6195 19.9168C26.0651 19.9168 27.237 18.7633 27.237 17.3405C27.237 15.9176 26.0651 14.7642 24.6195 14.7642C23.1738 14.7642 22.002 15.9176 22.002 17.3405C22.002 18.7633 23.1738 19.9168 24.6195 19.9168Z" fill="#141414"/>
<path d="M28.3695 18.4405C29.8151 18.4405 30.987 17.287 30.987 15.8642C30.987 14.4413 29.8151 13.2878 28.3695 13.2878C26.9238 13.2878 25.752 14.4413 25.752 15.8642C25.752 17.287 26.9238 18.4405 28.3695 18.4405Z" fill="#141414"/>
<path d="M31.3695 19.1785C32.8151 19.1785 33.987 18.0251 33.987 16.6022C33.987 15.1793 32.8151 14.0259 31.3695 14.0259C29.9238 14.0259 28.752 15.1793 28.752 16.6022C28.752 18.0251 29.9238 19.1785 31.3695 19.1785Z" fill="#141414"/>
<path d="M35.1195 20.6551C36.5651 20.6551 37.737 19.5016 37.737 18.0788C37.737 16.6559 36.5651 15.5024 35.1195 15.5024C33.6738 15.5024 32.502 16.6559 32.502 18.0788C32.502 19.5016 33.6738 20.6551 35.1195 20.6551Z" fill="#141414"/>
<path d="M35.8695 23.608C37.3151 23.608 38.487 22.4545 38.487 21.0316C38.487 19.6088 37.3151 18.4553 35.8695 18.4553C34.4238 18.4553 33.252 19.6088 33.252 21.0316C33.252 22.4545 34.4238 23.608 35.8695 23.608Z" fill="#141414"/>
<path d="M40.3695 25.0843C41.8151 25.0843 42.987 23.9308 42.987 22.508C42.987 21.0851 41.8151 19.9316 40.3695 19.9316C38.9238 19.9316 37.752 21.0851 37.752 22.508C37.752 23.9308 38.9238 25.0843 40.3695 25.0843Z" fill="#141414"/>
<path d="M17.502 22.5079C20.4014 22.5079 22.752 20.1944 22.752 17.3405C22.752 14.4866 20.4014 12.1731 17.502 12.1731C14.6025 12.1731 12.252 14.4866 12.252 17.3405C12.252 20.1944 14.6025 22.5079 17.502 22.5079Z" fill="#141414"/>
<path d="M24.252 17.3407C27.1514 17.3407 29.502 15.0272 29.502 12.1733C29.502 9.31939 27.1514 7.00586 24.252 7.00586C21.3525 7.00586 19.002 9.31939 19.002 12.1733C19.002 15.0272 21.3525 17.3407 24.252 17.3407Z" fill="#141414"/>
<path d="M46.002 26.9371C48.9014 26.9371 51.252 24.6236 51.252 21.7697C51.252 18.9158 48.9014 16.6023 46.002 16.6023C43.1025 16.6023 40.752 18.9158 40.752 21.7697C40.752 24.6236 43.1025 26.9371 46.002 26.9371Z" fill="#141414"/>
<path d="M40.752 22.5079C43.6514 22.5079 46.002 20.1944 46.002 17.3405C46.002 14.4866 43.6514 12.1731 40.752 12.1731C37.8525 12.1731 35.502 14.4866 35.502 17.3405C35.502 20.1944 37.8525 22.5079 40.752 22.5079Z" fill="#141414"/>
<path d="M34.002 17.3407C36.9014 17.3407 39.252 15.0272 39.252 12.1733C39.252 9.31939 36.9014 7.00586 34.002 7.00586C31.1025 7.00586 28.752 9.31939 28.752 12.1733C28.752 15.0272 31.1025 17.3407 34.002 17.3407Z" fill="#141414"/>
<path d="M52.752 27.1659C55.6515 27.1659 58.002 24.8524 58.002 21.9985C58.002 19.1446 55.6515 16.8311 52.752 16.8311C49.8525 16.8311 47.502 19.1446 47.502 21.9985C47.502 24.8524 49.8525 27.1659 52.752 27.1659Z" fill="#141414"/>
<path d="M48.1699 20.7435C51.0694 20.7435 53.4199 18.43 53.4199 15.5761C53.4199 12.7222 51.0694 10.4087 48.1699 10.4087C45.2704 10.4087 42.9199 12.7222 42.9199 15.5761C42.9199 18.43 45.2704 20.7435 48.1699 20.7435Z" fill="#141414"/>
<path d="M41.8633 16.3661C44.7628 16.3661 47.1133 14.0525 47.1133 11.1987C47.1133 8.34478 44.7628 6.03125 41.8633 6.03125C38.9638 6.03125 36.6133 8.34478 36.6133 11.1987C36.6133 14.0525 38.9638 16.3661 41.8633 16.3661Z" fill="#141414"/>
<path d="M34.7227 12.6383C37.6222 12.6383 39.9727 10.3248 39.9727 7.47088C39.9727 4.617 37.6222 2.30347 34.7227 2.30347C31.8232 2.30347 29.4727 4.617 29.4727 7.47088C29.4727 10.3248 31.8232 12.6383 34.7227 12.6383Z" fill="#141414"/>
</g>
<defs>
<clipPath id="clip0_2321_14568">
<rect width="60" height="56" fill="white" transform="translate(0.0273438)"/>
</clipPath>
</defs>
</svg>
