<svg width="61" height="60" viewBox="0 0 61 60" fill="none" xmlns="http://www.w3.org/2000/svg">
<g clip-path="url(#clip0_2321_14684)">
<path d="M5.65234 39.1083C4.35941 39.1083 3.11942 38.5881 2.20518 37.662C1.29094 36.736 0.777344 35.48 0.777344 34.1704C0.777344 32.8608 1.29094 31.6048 2.20518 30.6787C3.11942 29.7527 4.35941 29.2324 5.65234 29.2324V39.1083Z" fill="#FFE9C5" stroke="#141414" stroke-width="1.25" stroke-miterlimit="10"/>
<path d="M54.4023 29.2324C55.6953 29.2324 56.9352 29.7527 57.8495 30.6787C58.7637 31.6048 59.2773 32.8608 59.2773 34.1704C59.2773 35.48 58.7637 36.736 57.8495 37.662C56.9352 38.5881 55.6953 39.1083 54.4023 39.1083V29.2324Z" fill="#FFE9C5" stroke="#141414" stroke-width="1.25" stroke-miterlimit="10"/>
<path d="M30.0273 59.2401C43.9035 59.2401 55.1523 48.3562 55.1523 34.9302C55.1523 21.5042 43.9035 10.6202 30.0273 10.6202C16.1512 10.6202 4.90234 21.5042 4.90234 34.9302C4.90234 48.3562 16.1512 59.2401 30.0273 59.2401Z" fill="#FFE9C5" stroke="#141414" stroke-width="1.25" stroke-miterlimit="10"/>
<path d="M18.0273 42.5272C20.3055 42.5272 22.1523 40.6565 22.1523 38.3489C22.1523 36.0413 20.3055 34.1707 18.0273 34.1707C15.7492 34.1707 13.9023 36.0413 13.9023 38.3489C13.9023 40.6565 15.7492 42.5272 18.0273 42.5272Z" fill="#FCB295"/>
<path d="M42.0273 42.5272C44.3055 42.5272 46.1523 40.6565 46.1523 38.3489C46.1523 36.0413 44.3055 34.1707 42.0273 34.1707C39.7492 34.1707 37.9023 36.0413 37.9023 38.3489C37.9023 40.6565 39.7492 42.5272 42.0273 42.5272Z" fill="#FCB295"/>
<path d="M44.3141 7.20923L53.0741 21.2786L30.4766 24.0287V7.74101L44.3141 7.20923Z" fill="#232323"/>
<path d="M16.6405 7.20923L7.87305 21.2786L30.478 24.0287V7.74101L16.6405 7.20923Z" fill="#232323"/>
<path opacity="0.5" d="M44.3141 7.20923L53.0741 21.2786L30.4766 24.0287V7.74101L44.3141 7.20923Z" fill="url(#paint0_linear_2321_14684)"/>
<path opacity="0.5" d="M16.6405 7.20923L7.87305 21.2786L30.478 24.0287V7.74101L16.6405 7.20923Z" fill="url(#paint1_linear_2321_14684)"/>
<path d="M7.41406 20.7545L30.2441 24.5833L53.2616 20.7545" stroke="#4C4C4C" stroke-width="1.875" stroke-linecap="round" stroke-linejoin="round"/>
<path d="M53.1655 29.0047H49.543L50.4505 11.851H52.258L53.1655 29.0047Z" fill="#00F9FF" stroke="#141414" stroke-width="0.4375" stroke-linecap="round" stroke-linejoin="round"/>
<path d="M51.3567 12.9752C52.2721 12.9752 53.0142 12.2236 53.0142 11.2963C53.0142 10.3691 52.2721 9.61743 51.3567 9.61743C50.4413 9.61743 49.6992 10.3691 49.6992 11.2963C49.6992 12.2236 50.4413 12.9752 51.3567 12.9752Z" fill="#00F9FF" stroke="#141414" stroke-width="0.4375" stroke-linecap="round" stroke-linejoin="round"/>
<path d="M51.3639 12.7852C51.8734 12.7852 52.2864 12.1186 52.2864 11.2962C52.2864 10.4739 51.8734 9.80725 51.3639 9.80725C50.8544 9.80725 50.4414 10.4739 50.4414 11.2962C50.4414 12.1186 50.8544 12.7852 51.3639 12.7852Z" stroke="#141414" stroke-width="0.1875" stroke-linecap="round" stroke-linejoin="round"/>
<path d="M52.8264 12.5953H49.8789V14.4566H52.8264V12.5953Z" fill="#00226D" stroke="#141414" stroke-width="0.4375" stroke-linecap="round" stroke-linejoin="round"/>
<path d="M50.8105 14.3806L50.623 28.8374" stroke="#141414" stroke-width="0.1875" stroke-linecap="round" stroke-linejoin="round"/>
<path d="M51.9121 14.3806L52.0996 28.8374" stroke="#141414" stroke-width="0.1875" stroke-linecap="round" stroke-linejoin="round"/>
<path d="M51.3574 14.2743V29.111" stroke="#141414" stroke-width="0.1875" stroke-linecap="round" stroke-linejoin="round"/>
<path d="M51.3574 9.61743V12.5954" stroke="#141414" stroke-width="0.1875" stroke-linecap="round" stroke-linejoin="round"/>
<path d="M31.1066 14.6768L56.8541 7.83966C56.9573 7.81626 57.0494 7.75799 57.1154 7.67445C57.1815 7.59091 57.2175 7.48707 57.2175 7.38005C57.2175 7.27302 57.1815 7.16919 57.1154 7.08565C57.0494 7.00211 56.9573 6.94383 56.8541 6.92043L30.3641 0.0832572C30.2852 0.0642072 30.203 0.0642072 30.1241 0.0832572L3.17664 7.68012C3.07521 7.70664 2.98536 7.76655 2.92121 7.85044C2.85706 7.93432 2.82227 8.03742 2.82227 8.14353C2.82227 8.24963 2.85706 8.35273 2.92121 8.43661C2.98536 8.5205 3.07521 8.58041 3.17664 8.60693L30.8366 14.6844" fill="#141414"/>
<path d="M19.3477 30.0074H24.9502" stroke="black" stroke-width="1.25" stroke-linecap="round" stroke-linejoin="round"/>
<path d="M35.0977 30.0074H40.7002" stroke="black" stroke-width="1.25" stroke-linecap="round" stroke-linejoin="round"/>
<path d="M20.6895 39.4885C20.6895 39.4885 30.0645 48.3617 39.4395 39.4885" stroke="black" stroke-width="1.25" stroke-linecap="round" stroke-linejoin="round"/>
<path d="M20.6523 38.7286L19.9023 39.4883" stroke="black" stroke-width="1.25" stroke-linecap="round" stroke-linejoin="round"/>
<path d="M39.4023 38.7286L40.1523 39.4883" stroke="black" stroke-width="1.25" stroke-linecap="round" stroke-linejoin="round"/>
</g>
<defs>
<linearGradient id="paint0_linear_2321_14684" x1="41.7716" y1="7.20923" x2="41.7716" y2="24.0287" gradientUnits="userSpaceOnUse">
<stop offset="0.28"/>
<stop offset="0.64" stop-opacity="0"/>
</linearGradient>
<linearGradient id="paint1_linear_2321_14684" x1="19.1755" y1="7.20923" x2="19.1755" y2="24.0287" gradientUnits="userSpaceOnUse">
<stop offset="0.28"/>
<stop offset="0.64" stop-opacity="0"/>
</linearGradient>
<clipPath id="clip0_2321_14684">
<rect width="60" height="60" fill="white" transform="translate(0.0273438)"/>
</clipPath>
</defs>
</svg>
