<svg width="61" height="60" viewBox="0 0 61 60" fill="none" xmlns="http://www.w3.org/2000/svg">
<g clip-path="url(#clip0_2321_14709)">
<path d="M5.65234 39.388C4.35941 39.388 3.11944 38.8747 2.2052 37.961C1.29096 37.0473 0.777344 35.8081 0.777344 34.516C0.777344 33.2239 1.29096 31.9847 2.2052 31.071C3.11944 30.1573 4.35941 29.644 5.65234 29.644V39.388Z" fill="#FFE9C5" stroke="#141414" stroke-width="1.25" stroke-miterlimit="10"/>
<path d="M54.4023 29.644C55.6953 29.644 56.9352 30.1573 57.8495 31.071C58.7637 31.9847 59.2773 33.2239 59.2773 34.516C59.2773 35.8081 58.7637 37.0473 57.8495 37.961C56.9352 38.8747 55.6953 39.388 54.4023 39.388V29.644Z" fill="#FFE9C5" stroke="#141414" stroke-width="1.25" stroke-miterlimit="10"/>
<path d="M24.2221 8.67942C24.9609 9.44668 25.4137 10.4442 25.5046 11.5051C25.5194 11.6483 25.5865 11.781 25.693 11.8778C25.7996 11.9746 25.9381 12.0287 26.0821 12.0298H32.8321C32.9096 12.0298 32.9862 12.0145 33.0577 11.9846C33.1292 11.9548 33.194 11.911 33.2484 11.8559C33.3029 11.8009 33.3458 11.7355 33.3747 11.6637C33.4037 11.5919 33.4181 11.5151 33.4171 11.4377V0.599476C33.4157 0.473799 33.3743 0.351823 33.2989 0.251221C33.2235 0.150619 33.1181 0.0766164 32.9978 0.0398891C32.8775 0.00316177 32.7487 0.00562139 32.6299 0.0469343C32.5111 0.0882471 32.4086 0.166261 32.3371 0.26968C30.7621 2.62321 27.6721 6.67069 24.4546 7.70504C24.3585 7.73559 24.2719 7.79045 24.2032 7.86431C24.1346 7.93817 24.0862 8.02851 24.0628 8.12656C24.0394 8.22462 24.0418 8.32705 24.0697 8.42392C24.0976 8.52079 24.1501 8.60881 24.2221 8.67942Z" fill="black"/>
<path d="M30.2148 59.2505C44.091 59.2505 55.3398 48.5121 55.3398 35.2655C55.3398 22.019 44.091 11.2805 30.2148 11.2805C16.3387 11.2805 5.08984 22.019 5.08984 35.2655C5.08984 48.5121 16.3387 59.2505 30.2148 59.2505Z" fill="#FFE9C5" stroke="#141414" stroke-width="1.25" stroke-miterlimit="10"/>
<path d="M17.2773 42.7607C19.5555 42.7607 21.4023 40.915 21.4023 38.6383C21.4023 36.3615 19.5555 34.5159 17.2773 34.5159C14.9992 34.5159 13.1523 36.3615 13.1523 38.6383C13.1523 40.915 14.9992 42.7607 17.2773 42.7607Z" fill="#FCB295"/>
<path d="M41.2773 42.0112C43.5555 42.0112 45.4023 40.1655 45.4023 37.8888C45.4023 35.612 43.5555 33.7664 41.2773 33.7664C38.9992 33.7664 37.1523 35.612 37.1523 37.8888C37.1523 40.1655 38.9992 42.0112 41.2773 42.0112Z" fill="#FCB295"/>
<path d="M22.9023 32.8295C24.145 32.8295 25.1523 31.655 25.1523 30.2061C25.1523 28.7573 24.145 27.5828 22.9023 27.5828C21.6597 27.5828 20.6523 28.7573 20.6523 30.2061C20.6523 31.655 21.6597 32.8295 22.9023 32.8295Z" fill="black"/>
<path d="M37.1523 33.017C38.395 33.017 39.4023 31.8425 39.4023 30.3936C39.4023 28.9448 38.395 27.7703 37.1523 27.7703C35.9097 27.7703 34.9023 28.9448 34.9023 30.3936C34.9023 31.8425 35.9097 33.017 37.1523 33.017Z" fill="black"/>
<path d="M21.7773 37.8888C25.9195 37.8888 29.2773 34.5331 29.2773 30.3935C29.2773 26.254 25.9195 22.8982 21.7773 22.8982C17.6352 22.8982 14.2773 26.254 14.2773 30.3935C14.2773 34.5331 17.6352 37.8888 21.7773 37.8888Z" stroke="#141414" stroke-width="1.25" stroke-miterlimit="10"/>
<path d="M14.2994 30.9407L5.17188 31.7427" stroke="#141414" stroke-width="1.25" stroke-miterlimit="10"/>
<path d="M38.2773 37.8888C42.4195 37.8888 45.7773 34.5331 45.7773 30.3935C45.7773 26.254 42.4195 22.8982 38.2773 22.8982C34.1352 22.8982 30.7773 26.254 30.7773 30.3935C30.7773 34.5331 34.1352 37.8888 38.2773 37.8888Z" stroke="#141414" stroke-width="1.25" stroke-miterlimit="10"/>
<path d="M45.7539 30.9407L54.8814 31.7427" stroke="#141414" stroke-width="1.25" stroke-miterlimit="10"/>
<path d="M30.2148 49.5066C32.2859 49.5066 33.9648 47.6609 33.9648 45.3841C33.9648 43.1074 32.2859 41.2617 30.2148 41.2617C28.1438 41.2617 26.4648 43.1074 26.4648 45.3841C26.4648 47.6609 28.1438 49.5066 30.2148 49.5066Z" fill="black"/>
</g>
<defs>
<clipPath id="clip0_2321_14709">
<rect width="60" height="60" fill="white" transform="translate(0.0273438)"/>
</clipPath>
</defs>
</svg>
