<svg width="61" height="54" viewBox="0 0 61 54" fill="none" xmlns="http://www.w3.org/2000/svg">
<g clip-path="url(#clip0_2321_14629)">
<path d="M5.65234 33.489C4.35941 33.489 3.11942 32.9782 2.20518 32.069C1.29094 31.1598 0.777344 29.9267 0.777344 28.6409C0.777344 27.3551 1.29094 26.122 2.20518 25.2128C3.11942 24.3036 4.35941 23.7928 5.65234 23.7928V33.489Z" fill="#FFE9C5" stroke="#141414" stroke-width="1.25" stroke-miterlimit="10"/>
<path d="M54.4023 23.7928C55.6953 23.7928 56.9352 24.3036 57.8495 25.2128C58.7637 26.122 59.2773 27.3551 59.2773 28.6409C59.2773 29.9267 58.7637 31.1598 57.8495 32.069C56.9352 32.9782 55.6953 33.489 54.4023 33.489V23.7928Z" fill="#FFE9C5" stroke="#141414" stroke-width="1.25" stroke-miterlimit="10"/>
<path d="M30.0273 53.2541C43.9035 53.2541 55.1523 42.5683 55.1523 29.3867C55.1523 16.2051 43.9035 5.51929 30.0273 5.51929C16.1512 5.51929 4.90234 16.2051 4.90234 29.3867C4.90234 42.5683 16.1512 53.2541 30.0273 53.2541Z" fill="#FFE9C5" stroke="#141414" stroke-width="1.25" stroke-miterlimit="10"/>
<path d="M18.0273 36.0994C20.3055 36.0994 22.1523 34.2628 22.1523 31.9972C22.1523 29.7316 20.3055 27.895 18.0273 27.895C15.7492 27.895 13.9023 29.7316 13.9023 31.9972C13.9023 34.2628 15.7492 36.0994 18.0273 36.0994Z" fill="#FCB295"/>
<path d="M42.0273 36.0994C44.3055 36.0994 46.1523 34.2628 46.1523 31.9972C46.1523 29.7316 44.3055 27.895 42.0273 27.895C39.7492 27.895 37.9023 29.7316 37.9023 31.9972C37.9023 34.2628 39.7492 36.0994 42.0273 36.0994Z" fill="#FCB295"/>
<path d="M23.6523 26.9627C24.895 26.9627 25.9023 25.7939 25.9023 24.3522C25.9023 22.9105 24.895 21.7417 23.6523 21.7417C22.4097 21.7417 21.4023 22.9105 21.4023 24.3522C21.4023 25.7939 22.4097 26.9627 23.6523 26.9627Z" fill="black"/>
<path d="M36.4023 27.1492C37.645 27.1492 38.6523 25.9805 38.6523 24.5387C38.6523 23.097 37.645 21.9282 36.4023 21.9282C35.1597 21.9282 34.1523 23.097 34.1523 24.5387C34.1523 25.9805 35.1597 27.1492 36.4023 27.1492Z" fill="black"/>
<path d="M20.6602 32.3701C20.6602 32.3701 30.0277 41.0743 39.4102 32.3701" stroke="black" stroke-width="1.25" stroke-linecap="round" stroke-linejoin="round"/>
<path d="M6.06445 20.1381C6.06445 9.0174 16.227 0 29.6895 0C43.152 0 54.0644 9.0174 54.0644 20.1381" fill="#141414"/>
</g>
<defs>
<clipPath id="clip0_2321_14629">
<rect width="60" height="54" fill="white" transform="translate(0.0273438)"/>
</clipPath>
</defs>
</svg>
