<svg width="61" height="60" viewBox="0 0 61 60" fill="none" xmlns="http://www.w3.org/2000/svg">
<g clip-path="url(#clip0_2321_14666)">
<path d="M5.72382 39.375C4.41452 39.375 3.15885 38.8614 2.23304 37.9471C1.30723 37.0329 0.787109 35.7929 0.787109 34.5C0.787109 33.2071 1.30723 31.9671 2.23304 31.0529C3.15885 30.1386 4.41452 29.625 5.72382 29.625V39.375Z" fill="#FFE9C5" stroke="#141414" stroke-width="1.25" stroke-miterlimit="10"/>
<path d="M54.332 29.625C55.6413 29.625 56.897 30.1386 57.8228 31.0529C58.7486 31.9671 59.2687 33.2071 59.2687 34.5C59.2687 35.7929 58.7486 37.0329 57.8228 37.9471C56.897 38.8614 55.6413 39.375 54.332 39.375V29.625Z" fill="#FFE9C5" stroke="#141414" stroke-width="1.25" stroke-miterlimit="10"/>
<path d="M29.6481 59.25C43.6999 59.25 55.0912 48.5048 55.0912 35.25C55.0912 21.9952 43.6999 11.25 29.6481 11.25C15.5963 11.25 4.20508 21.9952 4.20508 35.25C4.20508 48.5048 15.5963 59.25 29.6481 59.25Z" fill="#FFE9C5" stroke="#141414" stroke-width="1.25" stroke-miterlimit="10"/>
<path d="M17.4956 42.75C19.8026 42.75 21.6728 40.9032 21.6728 38.625C21.6728 36.3468 19.8026 34.5 17.4956 34.5C15.1886 34.5 13.3184 36.3468 13.3184 38.625C13.3184 40.9032 15.1886 42.75 17.4956 42.75Z" fill="#FCB295"/>
<path d="M41.8003 42.75C44.1073 42.75 45.9775 40.9032 45.9775 38.625C45.9775 36.3468 44.1073 34.5 41.8003 34.5C39.4932 34.5 37.623 36.3468 37.623 38.625C37.623 40.9032 39.4932 42.75 41.8003 42.75Z" fill="#FCB295"/>
<path d="M24.422 32.67C24.422 32.67 21.0195 30.27 17.4043 34.335" stroke="black" stroke-width="1.25" stroke-linecap="round" stroke-linejoin="round"/>
<path d="M34.873 32.67C34.873 32.67 38.2756 30.27 41.8908 34.335" stroke="black" stroke-width="1.25" stroke-linecap="round" stroke-linejoin="round"/>
<path d="M29.6481 0.900024C35.9085 0.900024 41.9126 3.35589 46.3394 7.72737C50.7662 12.0989 53.2532 18.0278 53.2532 24.2101V25.732H6.04297V24.2101C6.04297 18.0278 8.52993 12.0989 12.9567 7.72737C17.3836 3.35589 23.3876 0.900024 29.6481 0.900024Z" fill="#0A5500" stroke="#141414" stroke-width="1.25" stroke-linecap="round" stroke-linejoin="round"/>
<path d="M54.8958 24.931H4.40039L7.39361 15.8232H52.008L54.8958 24.931Z" fill="url(#paint0_linear_2321_14666)"/>
<path d="M29.6354 46.5C27.7974 46.5 26.3164 45.4425 26.3164 44.1375V40.3875C26.3161 40.3189 26.3325 40.2513 26.3642 40.1903C26.3959 40.1293 26.442 40.0767 26.4986 40.037C26.5552 39.9973 26.6206 39.9716 26.6893 39.9621C26.7581 39.9526 26.8282 39.9596 26.8936 39.9825C27.9278 40.3347 29.0216 40.485 30.1139 40.425C30.8916 40.3913 31.6597 40.2422 32.3924 39.9825C32.4589 39.9597 32.5299 39.953 32.5995 39.9629C32.6692 39.9728 32.7354 39.9991 32.7927 40.0395C32.85 40.0799 32.8966 40.1332 32.9287 40.1951C32.9608 40.2569 32.9774 40.3255 32.9772 40.395V44.145C32.962 45.4425 31.4734 46.5 29.6354 46.5Z" fill="black"/>
<path d="M52.584 18.5227H6.71223C5.43544 18.5227 4.40039 19.5448 4.40039 20.8056V25.8521C4.40039 27.113 5.43544 28.1351 6.71223 28.1351H52.584C53.8608 28.1351 54.8958 27.113 54.8958 25.8521V20.8056C54.8958 19.5448 53.8608 18.5227 52.584 18.5227Z" fill="#0A5500" stroke="#141414" stroke-width="1.25" stroke-linecap="round" stroke-linejoin="round"/>
<g clip-path="url(#clip1_2321_14666)">
<path d="M28.8276 23.5245L28.2051 24.7542H28.7954L29.2201 23.9337L28.8276 23.5245Z" fill="white"/>
<path d="M29.6491 21.9041L28.998 23.19L29.3932 23.6017L29.6491 23.1074L30.5018 24.7541H31.0921L29.6491 21.9041Z" fill="white"/>
<path d="M29.648 23.8992L29.4922 24.2317V24.7542H29.648H29.8038V24.2317L29.648 23.8992Z" fill="white"/>
</g>
</g>
<defs>
<linearGradient id="paint0_linear_2321_14666" x1="29.6522" y1="24.931" x2="29.6522" y2="15.8232" gradientUnits="userSpaceOnUse">
<stop/>
<stop offset="1" stop-opacity="0"/>
</linearGradient>
<clipPath id="clip0_2321_14666">
<rect width="60" height="60" fill="white" transform="translate(0.0273438)"/>
</clipPath>
<clipPath id="clip1_2321_14666">
<rect width="2.88608" height="2.85" fill="white" transform="translate(28.2051 21.9038)"/>
</clipPath>
</defs>
</svg>
