<svg width="61" height="60" viewBox="0 0 61 60" fill="none" xmlns="http://www.w3.org/2000/svg">
<g clip-path="url(#clip0_2321_14753)">
<path d="M5.72382 39.388C4.41452 39.388 3.15883 38.8747 2.23302 37.961C1.3072 37.0473 0.787109 35.8081 0.787109 34.516C0.787109 33.2239 1.3072 31.9847 2.23302 31.071C3.15883 30.1573 4.41452 29.644 5.72382 29.644V39.388Z" fill="#FFE9C5" stroke="#141414" stroke-width="1.25" stroke-miterlimit="10"/>
<path d="M54.332 29.644C55.6413 29.644 56.897 30.1573 57.8228 31.071C58.7486 31.9847 59.2687 33.2239 59.2687 34.516C59.2687 35.8081 58.7486 37.0473 57.8228 37.961C56.897 38.8747 55.6413 39.388 54.332 39.388V29.644Z" fill="#FFE9C5" stroke="#141414" stroke-width="1.25" stroke-miterlimit="10"/>
<path d="M25.7967 8.67967C26.548 9.44482 27.007 10.4435 27.0954 11.5054C27.1137 11.6486 27.1837 11.7804 27.2925 11.8768C27.4013 11.9732 27.5417 12.0276 27.6878 12.0301H34.5233C34.6017 12.0301 34.6794 12.0147 34.7518 11.9849C34.8241 11.955 34.8898 11.9113 34.9449 11.8562C35 11.8011 35.0435 11.7358 35.0728 11.664C35.1021 11.5922 35.1167 11.5153 35.1157 11.4379V0.59972C35.1143 0.474044 35.0723 0.352067 34.996 0.251465C34.9197 0.150863 34.8129 0.0768606 34.6911 0.0401332C34.5693 0.00340591 34.4388 0.00586553 34.3185 0.0471784C34.1982 0.0884913 34.0944 0.166505 34.022 0.269924C32.4271 2.62345 29.3056 6.67093 26.0398 7.70529C25.9418 7.73494 25.8533 7.78914 25.783 7.86261C25.7126 7.93608 25.6628 8.02631 25.6383 8.12447C25.6138 8.22264 25.6155 8.32539 25.6433 8.4227C25.671 8.52001 25.7239 8.60854 25.7967 8.67967Z" fill="black"/>
<path d="M30.361 59.2505C44.4128 59.2505 55.804 48.5121 55.804 35.2655C55.804 22.019 44.4128 11.2805 30.361 11.2805C16.3092 11.2805 4.91797 22.019 4.91797 35.2655C4.91797 48.5121 16.3092 59.2505 30.361 59.2505Z" fill="#FFE9C5" stroke="#141414" stroke-width="1.25" stroke-miterlimit="10"/>
<path d="M18.1655 40.5122C20.4725 40.5122 22.3427 38.6665 22.3427 36.3898C22.3427 34.113 20.4725 32.2673 18.1655 32.2673C15.8585 32.2673 13.9883 34.113 13.9883 36.3898C13.9883 38.6665 15.8585 40.5122 18.1655 40.5122Z" fill="#FCB295"/>
<path d="M42.4682 40.5122C44.7752 40.5122 46.6454 38.6665 46.6454 36.3898C46.6454 34.113 44.7752 32.2673 42.4682 32.2673C40.1612 32.2673 38.291 34.113 38.291 36.3898C38.291 38.6665 40.1612 40.5122 42.4682 40.5122Z" fill="#FCB295"/>
<path d="M25.3418 32.6421C28.7019 31.307 32.4552 31.307 35.8152 32.6421V30.6484C32.455 29.314 28.702 29.314 25.3418 30.6484V32.6421Z" fill="#141414"/>
<path d="M22.3709 22.6058L24.1785 26.2261C24.2388 26.3459 24.3276 26.4494 24.4375 26.5278C24.5473 26.6061 24.6748 26.6569 24.8089 26.6758L28.857 27.2529C29.0119 27.2746 29.1575 27.3388 29.2772 27.4381C29.397 27.5374 29.4861 27.6679 29.5343 27.8148C29.5826 27.9616 29.5881 28.1189 29.5503 28.2687C29.5125 28.4185 29.4328 28.5548 29.3203 28.662L26.3887 31.4728C26.2892 31.5686 26.215 31.687 26.1726 31.8177C26.1303 31.9484 26.121 32.0873 26.1456 32.2223L26.8368 36.1948C26.8657 36.3466 26.8504 36.5033 26.7928 36.6468C26.7351 36.7903 26.6375 36.9148 26.5111 37.0058C26.3847 37.0968 26.2348 37.1506 26.0787 37.1609C25.9226 37.1713 25.7668 37.1378 25.6292 37.0643L22.014 35.1905C21.8964 35.1312 21.7663 35.1004 21.6342 35.1004C21.5022 35.1004 21.3721 35.1312 21.2545 35.1905L17.6393 37.0643C17.5012 37.1367 17.3453 37.1695 17.1893 37.1588C17.0333 37.1481 16.8834 37.0944 16.7568 37.0038C16.6302 36.9132 16.5319 36.7894 16.4731 36.6463C16.4142 36.5033 16.3973 36.3469 16.4241 36.1948L17.1153 32.2223C17.1415 32.0879 17.1338 31.9492 17.0927 31.8184C17.0516 31.6877 16.9785 31.569 16.8798 31.4728L13.9482 28.662C13.8357 28.5548 13.756 28.4185 13.7182 28.2687C13.6803 28.1189 13.6859 27.9616 13.7341 27.8148C13.7824 27.6679 13.8715 27.5374 13.9913 27.4381C14.111 27.3388 14.2566 27.2746 14.4114 27.2529L18.4596 26.6758C18.5937 26.6569 18.7212 26.6061 18.831 26.5278C18.9408 26.4494 19.0297 26.3459 19.0899 26.2261L20.8975 22.6058C20.9689 22.4742 21.0751 22.3641 21.2048 22.2874C21.3346 22.2107 21.483 22.1702 21.6342 22.1702C21.7855 22.1702 21.9339 22.2107 22.0637 22.2874C22.1934 22.3641 22.2996 22.4742 22.3709 22.6058Z" fill="#141414"/>
<path d="M39.8397 22.6058L41.6473 26.2261C41.7075 26.3459 41.7964 26.4494 41.9062 26.5278C42.016 26.6061 42.1435 26.6569 42.2777 26.6758L46.3258 27.2529C46.4807 27.2746 46.6263 27.3388 46.746 27.4381C46.8657 27.5374 46.9548 27.6679 47.0031 27.8148C47.0514 27.9616 47.0569 28.1189 47.0191 28.2687C46.9812 28.4185 46.9015 28.5548 46.7891 28.662L43.8574 31.4728C43.7579 31.5686 43.6838 31.687 43.6414 31.8177C43.599 31.9484 43.5897 32.0873 43.6144 32.2223L44.3055 36.1948C44.3344 36.3466 44.3192 36.5033 44.2615 36.6468C44.2039 36.7903 44.1062 36.9148 43.9798 37.0058C43.8535 37.0968 43.7036 37.1506 43.5475 37.1609C43.3914 37.1713 43.2355 37.1378 43.0979 37.0643L39.4827 35.1905C39.3651 35.1312 39.235 35.1004 39.103 35.1004C38.971 35.1004 38.8408 35.1312 38.7232 35.1905L35.108 37.0643C34.9699 37.1367 34.814 37.1695 34.658 37.1588C34.502 37.1481 34.3522 37.0944 34.2255 37.0038C34.0989 36.9132 34.0006 36.7894 33.9418 36.6463C33.883 36.5033 33.866 36.3469 33.8929 36.1948L34.584 32.2223C34.6103 32.0879 34.6025 31.9492 34.5614 31.8184C34.5204 31.6877 34.4472 31.569 34.3485 31.4728L31.4169 28.662C31.3044 28.5548 31.2248 28.4185 31.1869 28.2687C31.1491 28.1189 31.1546 27.9616 31.2029 27.8148C31.2512 27.6679 31.3403 27.5374 31.46 27.4381C31.5797 27.3388 31.7253 27.2746 31.8802 27.2529L35.9283 26.6758C36.0625 26.6569 36.1899 26.6061 36.2998 26.5278C36.4096 26.4494 36.4984 26.3459 36.5587 26.2261L38.3663 22.6058C38.4376 22.4742 38.5438 22.3641 38.6736 22.2874C38.8033 22.2107 38.9517 22.1702 39.103 22.1702C39.2542 22.1702 39.4027 22.2107 39.5324 22.2874C39.6622 22.3641 39.7684 22.4742 39.8397 22.6058Z" fill="#141414"/>
<path d="M20.709 41.2617C20.709 41.2617 30.1951 50.0162 39.6963 41.2617" stroke="black" stroke-width="1.25" stroke-linecap="round" stroke-linejoin="round"/>
<path d="M35.4395 44.1238L39.334 41.7887L39.6889 42.3653C40.0027 42.8749 40.0985 43.4868 39.9551 44.0661C39.8118 44.6454 39.4411 45.1449 38.9247 45.4545C38.4082 45.7642 37.7883 45.8587 37.2013 45.7172C36.6142 45.5758 36.1081 45.21 35.7944 44.7003L35.4395 44.1238Z" fill="black"/>
</g>
<defs>
<clipPath id="clip0_2321_14753">
<rect width="60" height="60" fill="white" transform="translate(0.0273438)"/>
</clipPath>
</defs>
</svg>
