<svg width="61" height="60" viewBox="0 0 61 60" fill="none" xmlns="http://www.w3.org/2000/svg">
<g clip-path="url(#clip0_2321_14723)">
<path d="M5.72382 39.388C4.41452 39.388 3.15885 38.8747 2.23304 37.961C1.30723 37.0473 0.787109 35.8081 0.787109 34.516C0.787109 33.2239 1.30723 31.9847 2.23304 31.071C3.15885 30.1573 4.41452 29.644 5.72382 29.644V39.388Z" fill="#FFE9C5" stroke="#141414" stroke-width="1.25" stroke-miterlimit="10"/>
<path d="M54.332 29.644C55.6413 29.644 56.897 30.1573 57.8228 31.071C58.7486 31.9847 59.2687 33.2239 59.2687 34.516C59.2687 35.8081 58.7486 37.0473 57.8228 37.961C56.897 38.8747 55.6413 39.388 54.332 39.388V29.644Z" fill="#FFE9C5" stroke="#141414" stroke-width="1.25" stroke-miterlimit="10"/>
<path d="M25.7596 8.67979C26.5109 9.44494 26.9699 10.4436 27.0583 11.5055C27.0766 11.6487 27.1466 11.7805 27.2554 11.8769C27.3642 11.9733 27.5045 12.0277 27.6507 12.0302H34.4862C34.5646 12.0302 34.6423 12.0148 34.7146 11.985C34.787 11.9552 34.8527 11.9114 34.9078 11.8563C34.9629 11.8012 35.0064 11.7359 35.0357 11.6641C35.065 11.5923 35.0796 11.5155 35.0786 11.4381V0.599842C35.0771 0.474166 35.0352 0.352189 34.9589 0.251587C34.8826 0.150985 34.7758 0.0769826 34.654 0.0402553C34.5322 0.00352798 34.4017 0.0059876 34.2814 0.0473005C34.1611 0.0886133 34.0573 0.166627 33.9849 0.270046C32.39 2.62358 29.2609 6.67106 26.0026 7.70541C25.9047 7.73506 25.8162 7.78927 25.7459 7.86274C25.6755 7.93621 25.6256 8.02643 25.6012 8.1246C25.5767 8.22276 25.5784 8.32552 25.6062 8.42283C25.6339 8.52014 25.6868 8.60866 25.7596 8.67979Z" fill="black"/>
<path d="M30.3161 59.2505C44.3679 59.2505 55.7591 48.5121 55.7591 35.2655C55.7591 22.019 44.3679 11.2805 30.3161 11.2805C16.2643 11.2805 4.87305 22.019 4.87305 35.2655C4.87305 48.5121 16.2643 59.2505 30.3161 59.2505Z" fill="#FFE9C5" stroke="#141414" stroke-width="1.25" stroke-miterlimit="10"/>
<path d="M18.1655 40.5122C20.4725 40.5122 22.3427 38.6665 22.3427 36.3898C22.3427 34.113 20.4725 32.2673 18.1655 32.2673C15.8585 32.2673 13.9883 34.113 13.9883 36.3898C13.9883 38.6665 15.8585 40.5122 18.1655 40.5122Z" fill="#FCB295"/>
<path d="M42.4682 40.5122C44.7752 40.5122 46.6454 38.6665 46.6454 36.3898C46.6454 34.113 44.7752 32.2673 42.4682 32.2673C40.1612 32.2673 38.291 34.113 38.291 36.3898C38.291 38.6665 40.1612 40.5122 42.4682 40.5122Z" fill="#FCB295"/>
<path d="M43.3249 25.4766H33.9983C32.7987 25.4766 31.8262 26.4363 31.8262 27.6202V31.9525C31.8262 33.1364 32.7987 34.0962 33.9983 34.0962H43.3249C44.5246 34.0962 45.4971 33.1364 45.4971 31.9525V27.6202C45.4971 26.4363 44.5246 25.4766 43.3249 25.4766Z" fill="#141414"/>
<path d="M43.957 32.2224C43.957 32.2224 43.957 33.1518 42.8633 32.9719" stroke="white" stroke-width="0.46875" stroke-linecap="round" stroke-linejoin="round"/>
<path d="M32.2054 28.722H27.6484V30.8432H32.2054V28.722Z" fill="black"/>
<path d="M54.8398 31.2854C51.7754 29.8796 48.3471 29.4373 45.0195 30.0187L45.2094 28.5196C46.7527 28.2429 48.328 28.1849 49.8879 28.3472C51.6668 28.5397 53.4029 29.0129 55.0297 29.7489L54.8398 31.2854Z" fill="#141414"/>
<path d="M16.9485 34.1036H26.2751C27.4747 34.1036 28.4473 33.1439 28.4473 31.96V27.6277C28.4473 26.4438 27.4747 25.484 26.2751 25.484H16.9485C15.7489 25.484 14.7764 26.4438 14.7764 27.6277V31.96C14.7764 33.1439 15.7489 34.1036 16.9485 34.1036Z" fill="#141414"/>
<path d="M16.3184 32.2224C16.3184 32.2224 16.3183 33.1518 17.4196 32.9719" stroke="white" stroke-width="0.46875" stroke-linecap="round" stroke-linejoin="round"/>
<path d="M5.79144 31.2403C7.15885 30.5976 8.61514 30.1581 10.113 29.9362C11.8213 29.6914 13.559 29.7294 15.2547 30.0486L15.0648 28.5495C13.5792 28.263 12.0582 28.1998 10.5535 28.3621C8.83711 28.5449 7.16358 29.0084 5.60156 29.7338L5.79144 31.2403Z" fill="#141414"/>
<path d="M28.5078 42.5209C28.5078 42.5209 37.4015 43.6153 39.9002 38.6833" stroke="#141414" stroke-width="1.25" stroke-linecap="round" stroke-linejoin="round"/>
</g>
<defs>
<clipPath id="clip0_2321_14723">
<rect width="60" height="60" fill="white" transform="translate(0.0273438)"/>
</clipPath>
</defs>
</svg>
