<svg width="61" height="60" viewBox="0 0 61 60" fill="none" xmlns="http://www.w3.org/2000/svg">
<g clip-path="url(#clip0_2321_14548)">
<path d="M5.65234 39.3877C4.35941 39.3877 3.11944 38.8744 2.2052 37.9608C1.29096 37.0471 0.777344 35.8079 0.777344 34.5158C0.777344 33.2236 1.29096 31.9844 2.2052 31.0708C3.11944 30.1571 4.35941 29.6438 5.65234 29.6438V39.3877Z" fill="#FFE9C5" stroke="#141414" stroke-width="1.07143" stroke-miterlimit="10"/>
<path d="M54.4023 29.6438C55.6953 29.6438 56.9352 30.1571 57.8495 31.0708C58.7637 31.9844 59.2773 33.2236 59.2773 34.5158C59.2773 35.8079 58.7637 37.0471 57.8495 37.9608C56.9352 38.8744 55.6953 39.3877 54.4023 39.3877V29.6438Z" fill="#FFE9C5" stroke="#141414" stroke-width="1.07143" stroke-miterlimit="10"/>
<path d="M25.5279 8.67198C26.2698 9.44013 26.723 10.4412 26.8104 11.5052C26.8284 11.6484 26.8975 11.7802 27.0049 11.8766C27.1124 11.973 27.251 12.0274 27.3954 12.0299H34.1454C34.3012 12.0279 34.45 11.9647 34.5595 11.8538C34.669 11.743 34.7304 11.5935 34.7304 11.4378V0.59203C34.729 0.466354 34.6876 0.344389 34.6122 0.243787C34.5368 0.143184 34.4313 0.0691649 34.3111 0.0324376C34.1908 -0.00428972 34.0619 -0.00181866 33.9432 0.0394942C33.8244 0.0808071 33.7219 0.158815 33.6504 0.262234C32.0754 2.62326 28.9854 6.67073 25.7679 7.70508C25.6712 7.73354 25.5836 7.78678 25.5139 7.85953C25.4442 7.93228 25.3948 8.022 25.3705 8.11977C25.3462 8.21754 25.348 8.31994 25.3756 8.41682C25.4032 8.5137 25.4557 8.60167 25.5279 8.67198Z" fill="black"/>
<path d="M30.0273 59.2505C43.9035 59.2505 55.1523 48.5121 55.1523 35.2655C55.1523 22.019 43.9035 11.2805 30.0273 11.2805C16.1512 11.2805 4.90234 22.019 4.90234 35.2655C4.90234 48.5121 16.1512 59.2505 30.0273 59.2505Z" fill="#FFE9C5" stroke="#141414" stroke-width="1.07143" stroke-miterlimit="10"/>
<path d="M18.0273 42.0112C20.3055 42.0112 22.1523 40.1655 22.1523 37.8888C22.1523 35.612 20.3055 33.7664 18.0273 33.7664C15.7492 33.7664 13.9023 35.612 13.9023 37.8888C13.9023 40.1655 15.7492 42.0112 18.0273 42.0112Z" fill="#FCB295"/>
<path d="M42.0273 42.0112C44.3055 42.0112 46.1523 40.1655 46.1523 37.8888C46.1523 35.612 44.3055 33.7664 42.0273 33.7664C39.7492 33.7664 37.9023 35.612 37.9023 37.8888C37.9023 40.1655 39.7492 42.0112 42.0273 42.0112Z" fill="#FCB295"/>
<path d="M23.6523 32.8295C24.895 32.8295 25.9023 31.655 25.9023 30.2061C25.9023 28.7573 24.895 27.5828 23.6523 27.5828C22.4097 27.5828 21.4023 28.7573 21.4023 30.2061C21.4023 31.655 22.4097 32.8295 23.6523 32.8295Z" fill="black"/>
<path d="M36.4023 33.017C37.645 33.017 38.6523 31.8425 38.6523 30.3936C38.6523 28.9448 37.645 27.7703 36.4023 27.7703C35.1597 27.7703 34.1523 28.9448 34.1523 30.3936C34.1523 31.8425 35.1597 33.017 36.4023 33.017Z" fill="black"/>
<path d="M20.6523 38.2634C20.6523 38.2634 30.0198 47.0105 39.4023 38.2634" stroke="black" stroke-width="1.07143" stroke-linecap="round" stroke-linejoin="round"/>
</g>
<defs>
<clipPath id="clip0_2321_14548">
<rect width="60" height="60" fill="white" transform="translate(0.0273438)"/>
</clipPath>
</defs>
</svg>
