<svg width="61" height="52" viewBox="0 0 61 52" fill="none" xmlns="http://www.w3.org/2000/svg">
<g clip-path="url(#clip0_2321_14558)">
<path d="M5.65234 31.1254C4.35941 31.1254 3.11944 30.6054 2.2052 29.6798C1.29096 28.7541 0.777344 27.4987 0.777344 26.1897C0.777344 24.8806 1.29096 23.6252 2.2052 22.6995C3.11944 21.7739 4.35941 21.2539 5.65234 21.2539V31.1254Z" fill="#FFE9C5" stroke="#141414" stroke-width="1.25" stroke-miterlimit="10"/>
<path d="M54.4023 21.2539C55.6953 21.2539 56.9352 21.7739 57.8495 22.6995C58.7637 23.6252 59.2773 24.8806 59.2773 26.1897C59.2773 27.4987 58.7637 28.7541 57.8495 29.6798C56.9352 30.6054 55.6953 31.1254 54.4023 31.1254V21.2539Z" fill="#FFE9C5" stroke="#141414" stroke-width="1.25" stroke-miterlimit="10"/>
<path d="M30.0273 51.2405C43.9035 51.2405 55.1523 40.3614 55.1523 26.9414C55.1523 13.5214 43.9035 2.64233 30.0273 2.64233C16.1512 2.64233 4.90234 13.5214 4.90234 26.9414C4.90234 40.3614 16.1512 51.2405 30.0273 51.2405Z" fill="#FFE9C5" stroke="#141414" stroke-width="1.25" stroke-miterlimit="10"/>
<path d="M18.0273 37.5722C20.3055 37.5722 22.1523 35.7023 22.1523 33.3958C22.1523 31.0892 20.3055 29.2194 18.0273 29.2194C15.7492 29.2194 13.9023 31.0892 13.9023 33.3958C13.9023 35.7023 15.7492 37.5722 18.0273 37.5722Z" fill="#FCB295"/>
<path d="M42.0273 37.5722C44.3055 37.5722 46.1523 35.7023 46.1523 33.3958C46.1523 31.0892 44.3055 29.2194 42.0273 29.2194C39.7492 29.2194 37.9023 31.0892 37.9023 33.3958C37.9023 35.7023 39.7492 37.5722 42.0273 37.5722Z" fill="#FCB295"/>
<path d="M23.6523 28.2703C24.895 28.2703 25.9023 27.0804 25.9023 25.6125C25.9023 24.1447 24.895 22.9548 23.6523 22.9548C22.4097 22.9548 21.4023 24.1447 21.4023 25.6125C21.4023 27.0804 22.4097 28.2703 23.6523 28.2703Z" fill="black"/>
<path d="M36.4023 28.4601C37.645 28.4601 38.6523 27.2702 38.6523 25.8024C38.6523 24.3346 37.645 23.1447 36.4023 23.1447C35.1597 23.1447 34.1523 24.3346 34.1523 25.8024C34.1523 27.2702 35.1597 28.4601 36.4023 28.4601Z" fill="black"/>
<path d="M20.6602 33.783C20.6602 33.783 30.0277 42.6445 39.4102 33.783" stroke="black" stroke-width="1.25" stroke-linecap="round" stroke-linejoin="round"/>
<path d="M5.65234 18.2924C5.65234 18.2924 21.4023 22.8485 34.1523 12.977C34.1523 12.977 48.4023 19.0517 54.4023 17.533C54.4023 17.533 50.7873 0.683153 32.1873 0.068083C31.6623 0.068083 31.1448 0.0680832 30.6199 0.014929C27.1999 -0.159721 10.9023 0.0680823 5.65234 18.2924Z" fill="#141414"/>
</g>
<defs>
<clipPath id="clip0_2321_14558">
<rect width="60" height="52" fill="white" transform="translate(0.0273438)"/>
</clipPath>
</defs>
</svg>
