<svg width="61" height="60" viewBox="0 0 61 60" fill="none" xmlns="http://www.w3.org/2000/svg">
<g clip-path="url(#clip0_2321_14650)">
<path d="M29.8614 0.76062C30.5664 0.76062 31.2425 1.04114 31.741 1.54048C32.2395 2.03982 32.5196 2.71706 32.5196 3.42323V3.8036H27.2031V3.42323C27.2031 2.71706 27.4832 2.03982 27.9817 1.54048C28.4802 1.04114 29.1563 0.76062 29.8614 0.76062Z" fill="#00F9FF" stroke="#141414" stroke-width="1.25" stroke-linecap="round" stroke-linejoin="round"/>
<path d="M5.72382 39.0795C4.41452 39.0795 3.15885 38.5585 2.23304 37.6312C1.30723 36.7039 0.787109 35.4461 0.787109 34.1347C0.787109 32.8232 1.30723 31.5655 2.23304 30.6381C3.15885 29.7108 4.41452 29.1898 5.72382 29.1898V39.0795Z" fill="#FFE9C5" stroke="#141414" stroke-width="1.25" stroke-miterlimit="10"/>
<path d="M54.332 29.1898C55.6413 29.1898 56.897 29.7108 57.8228 30.6381C58.7486 31.5655 59.2687 32.8232 59.2687 34.1347C59.2687 35.4461 58.7486 36.7039 57.8228 37.6312C56.897 38.5585 55.6413 39.0795 54.332 39.0795V29.1898Z" fill="#FFE9C5" stroke="#141414" stroke-width="1.25" stroke-miterlimit="10"/>
<path d="M30.027 59.2391C44.0788 59.2391 55.4701 48.34 55.4701 34.8952C55.4701 21.4505 44.0788 10.5514 30.027 10.5514C15.9752 10.5514 4.58398 21.4505 4.58398 34.8952C4.58398 48.34 15.9752 59.2391 30.027 59.2391Z" fill="#FFE9C5" stroke="#141414" stroke-width="1.25" stroke-miterlimit="10"/>
<path d="M17.8745 42.5028C20.1815 42.5028 22.0517 40.6296 22.0517 38.3187C22.0517 36.0079 20.1815 34.1346 17.8745 34.1346C15.5675 34.1346 13.6973 36.0079 13.6973 38.3187C13.6973 40.6296 15.5675 42.5028 17.8745 42.5028Z" fill="#FCB295"/>
<path d="M42.1792 42.5028C44.4862 42.5028 46.3564 40.6296 46.3564 38.3187C46.3564 36.0079 44.4862 34.1346 42.1792 34.1346C39.8722 34.1346 38.002 36.0079 38.002 38.3187C38.002 40.6296 39.8722 42.5028 42.1792 42.5028Z" fill="#FCB295"/>
<path d="M41.9128 40.9814H18.1406C21.5836 43.5244 25.7489 44.8963 30.0267 44.8963C34.3044 44.8963 38.4698 43.5244 41.9128 40.9814Z" fill="black"/>
<path d="M25.6828 30.4753C25.6828 30.4753 21.6803 26.7324 17.6777 30.4753" stroke="black" stroke-width="1.25" stroke-linecap="round" stroke-linejoin="round"/>
<path d="M42.3918 30.4753C42.3918 30.4753 38.3893 26.7324 34.3867 30.4753" stroke="black" stroke-width="1.25" stroke-linecap="round" stroke-linejoin="round"/>
<path d="M52.0526 28.0487C49.4855 26.8087 40.5842 20.1293 29.2678 20.3119C18.9235 20.4717 10.6754 26.7706 8.00195 28.0487C8.00195 25.7665 9.01967 20.3119 9.01967 18.0221C9.01967 10.1179 18.445 3.70483 30.0728 3.70483C41.7083 3.70483 51.1336 10.1179 51.1336 18.0221L52.0526 28.0487Z" fill="#00226D" stroke="#141414" stroke-width="1.25" stroke-linecap="round" stroke-linejoin="round"/>
<path d="M39.2703 14.9791C45.8096 16.6223 51.5513 20.175 52.4931 25.9034C52.9412 28.6573 52.1969 30.4679 47.7615 27.5162C44.8889 25.5751 41.7027 24.1467 38.3438 23.2941C37.645 23.1267 36.9007 22.9593 36.1108 22.8072C32.0963 22.0408 27.9735 22.0408 23.959 22.8072C23.1995 22.9593 22.44 23.1267 21.726 23.2941C18.3666 24.1452 15.1801 25.5738 12.3083 27.5162C7.86527 30.4831 7.12857 28.6573 7.57667 25.9034C8.51844 20.175 13.0298 16.2191 20.7995 14.9791C20.7843 14.9791 31.5311 13.0392 39.2703 14.9791Z" fill="#00F9FF" stroke="#141414" stroke-width="1.25" stroke-linecap="round" stroke-linejoin="round"/>
<g clip-path="url(#clip1_2321_14650)">
<path d="M28.7743 9.81323L27.8242 11.7497H28.7253L29.3735 10.4576L28.7743 9.81323Z" fill="white"/>
<path d="M30.0268 7.26123L29.0332 9.2865L29.6364 9.93482L30.0268 9.15633L31.3283 11.7496H32.2294L30.0268 7.26123Z" fill="white"/>
<path d="M30.0268 10.4033L29.7891 10.927V11.7498H30.0268H30.2646V10.927L30.0268 10.4033Z" fill="white"/>
</g>
</g>
<defs>
<clipPath id="clip0_2321_14650">
<rect width="60" height="60" fill="white" transform="translate(0.0273438 -0.000244141)"/>
</clipPath>
<clipPath id="clip1_2321_14650">
<rect width="4.40506" height="4.4884" fill="white" transform="translate(27.8242 7.26123)"/>
</clipPath>
</defs>
</svg>
