<svg width="18" height="19" viewBox="0 0 18 19" fill="none" xmlns="http://www.w3.org/2000/svg">
<g id="Group 861">
<path id="Vector" d="M17.7 9.86746C17.7 9.12747 17.6408 8.58747 17.5126 8.02748H9.17755V11.3674H14.07C13.9714 12.1975 13.4388 13.4475 12.2551 14.2874L12.2385 14.3992L14.8739 16.469L15.0565 16.4875C16.7333 14.9174 17.7 12.6074 17.7 9.86746Z" fill="#4285F4"/>
<path id="Vector_2" d="M9.17698 18.6675C11.5739 18.6675 13.5861 17.8674 15.0559 16.4875L12.2545 14.2874C11.5049 14.8174 10.4987 15.1874 9.17698 15.1874C6.82938 15.1874 4.83687 13.6175 4.1266 11.4475L4.02249 11.4564L1.28217 13.6064L1.24634 13.7074C2.70619 16.6474 5.70484 18.6675 9.17698 18.6675Z" fill="#34A853"/>
<path id="Vector_3" d="M4.12717 11.4475C3.93976 10.8875 3.83129 10.2875 3.83129 9.66749C3.83129 9.04745 3.93976 8.44748 4.11731 7.88748L4.11234 7.76822L1.33769 5.58368L1.24691 5.62746C0.64523 6.84747 0.299988 8.21749 0.299988 9.66749C0.299988 11.1175 0.64523 12.4874 1.24691 13.7075L4.12717 11.4475Z" fill="#FBBC05"/>
<path id="Vector_4" d="M9.17699 4.14745C10.844 4.14745 11.9684 4.87745 12.6096 5.48749L15.1151 3.00748C13.5763 1.55748 11.5739 0.66748 9.17699 0.66748C5.70484 0.66748 2.70619 2.68746 1.24634 5.62744L4.11674 7.88746C4.83688 5.71747 6.82938 4.14745 9.17699 4.14745Z" fill="#EB4335"/>
</g>
</svg>
