<svg width="20" height="20" viewBox="0 0 20 20" fill="none" xmlns="http://www.w3.org/2000/svg">
<g id="camera" clip-path="url(#clip0_2250_2349)">
<path id="Vector" d="M18.7997 15.5998C18.7997 16.0242 18.6311 16.4311 18.3311 16.7312C18.031 17.0312 17.6241 17.1998 17.1997 17.1998H2.79971C2.37536 17.1998 1.96839 17.0312 1.66834 16.7312C1.36828 16.4311 1.19971 16.0242 1.19971 15.5998V6.7998C1.19971 6.37546 1.36828 5.96849 1.66834 5.66843C1.96839 5.36838 2.37536 5.1998 2.79971 5.1998H5.99971L7.59971 2.7998H12.3997L13.9997 5.1998H17.1997C17.6241 5.1998 18.031 5.36838 18.3311 5.66843C18.6311 5.96849 18.7997 6.37546 18.7997 6.7998V15.5998Z" stroke="#19CED4" stroke-linecap="round" stroke-linejoin="round"/>
<path id="Vector_2" d="M9.9998 13.9999C11.7671 13.9999 13.1998 12.5672 13.1998 10.7999C13.1998 9.03254 11.7671 7.59985 9.9998 7.59985C8.23249 7.59985 6.7998 9.03254 6.7998 10.7999C6.7998 12.5672 8.23249 13.9999 9.9998 13.9999Z" stroke="#19CED4" stroke-linecap="round" stroke-linejoin="round"/>
</g>
<defs>
<clipPath id="clip0_2250_2349">
<rect width="19.2" height="19.2" fill="white" transform="translate(0.399902 0.399902)"/>
</clipPath>
</defs>
</svg>
